#!OML:ASF H:\IndianDance\Patient Classification 1\Patient 1\Session 1\dancer.ASF
:FULLY-SPECIFIED
:DEGREES
2715
root -2.43337 14.5082 11.1897 1276.82 -101.27 164.376
lowerback 4.62517 4.04764 -2.98902
upperback -6.30765 5.03601 -0.705684
thorax -9.47223 2.59801 0.272137
lowerneck -16.8917 -2.21011 0.0236559
upperneck 20.3609 -4.1971 4.13425
head 9.30116 -1.55282 0.866337
rclavicle 7.25564e-015 -7.15625e-015
rhumerus -2.49269 46.6313 -77.8704
rradius 104.123
rwrist -103.727
rhand -9.94948 -0.521085
rfingers 7.12502
rthumb 16.0323 -29.8778
lclavicle 7.25564e-015 -7.15625e-015
lhumerus 34.5593 -50.3091 32.3776
lradius 114.225
lwrist 90.4101
lhand -9.0324 24.8589
lfingers 7.12502
lthumb 16.9152 -305.858
rfemur -30.2242 -27.3716 23.8308
rtibia 56.2268
rfoot -20.7789 -16.345
rtoes 11.0786
lfemur -31.1009 33.7055 -11.4103
ltibia 67.9928
lfoot -13.6132 -7.17432
ltoes -9.93928
2716
root -2.42812 14.5527 11.2591 1278.24 -100.8 162.885
lowerback 4.61244 4.07461 -2.83961
upperback -6.33468 5.08613 -0.692471
thorax -9.48277 2.61247 0.197
lowerneck -16.9152 -2.19276 0.00791881
upperneck 20.3447 -4.22617 4.36569
head 9.30736 -1.54278 0.944258
rclavicle -4.36332e-014 -1.66979e-014
rhumerus -2.44626 46.433 -76.7271
rradius 104.315
rwrist -103.685
rhand -10.2342 -0.593047
rfingers 7.12502
rthumb 15.7581 -29.9716
lclavicle -4.36332e-014 -1.66979e-014
lhumerus 34.2836 -49.6212 31.3913
lradius 114.899
lwrist 88.8282
lhand -9.29395 25.0857
lfingers 7.12502
lthumb 16.6635 -305.61
rfemur -29.7519 -27.3002 23.6891
rtibia 55.3823
rfoot -20.1104 -16.1959
rtoes 10.4576
lfemur -30.5831 33.1418 -10.4233
ltibia 67.9986
lfoot -13.3264 -8.222
ltoes -9.87316
2717
root -2.42084 14.6007 11.3354 1280.16 -100.291 160.921
lowerback 4.587 4.09819 -2.56403
upperback -6.37189 5.14283 -0.684463
thorax -9.48382 2.62114 0.0468881
lowerneck -16.9219 -2.15604 0.021578
upperneck 20.3082 -4.22677 4.56454
head 9.3013 -1.52143 1.00999
rclavicle -7.04692e-014 -1.90833e-014
rhumerus -2.38976 46.2327 -75.4994
rradius 104.513
rwrist -103.636
rhand -10.4992 -0.703595
rfingers 7.12502
rthumb 15.5029 -30.1021
lclavicle -7.04692e-014 -1.90833e-014
lhumerus 33.842 -48.8234 30.4336
lradius 115.57
lwrist 87.264
lhand -9.41659 25.3672
lfingers 7.12502
lthumb 16.5454 -305.318
rfemur -29.2843 -27.1293 23.5973
rtibia 54.4578
rfoot -19.3737 -16.059
rtoes 9.91558
lfemur -29.9333 32.3632 -9.36634
ltibia 67.7963
lfoot -13.2703 -8.85028
ltoes -9.91989
2718
root -2.41188 14.6513 11.4181 1282.5 -99.7409 158.549
lowerback 4.54511 4.12296 -2.21057
upperback -6.41203 5.20766 -0.6848
thorax -9.46954 2.62797 -0.154466
lowerneck -16.9166 -2.10315 0.070572
upperneck 20.2484 -4.20432 4.72938
head 9.28277 -1.49096 1.06124
rclavicle 1.6201e-014 -3.97569e-015
rhumerus -2.33139 46.0243 -74.1866
rradius 104.746
rwrist -103.561
rhand -10.8538 -0.835658
rfingers 7.12502
rthumb 15.1613 -30.2603
lclavicle 1.6201e-014 -3.97569e-015
lhumerus 33.2561 -47.9198 29.4849
lradius 116.228
lwrist 85.9249
lhand -9.42359 25.5584
lfingers 7.12502
lthumb 16.5387 -305.126
rfemur -28.8237 -26.8498 23.5219
rtibia 53.4698
rfoot -18.5753 -15.9371
rtoes 9.44102
lfemur -29.1523 31.3907 -8.28832
ltibia 67.3934
lfoot -13.3768 -9.02042
ltoes -10.0031
2719
root -2.4016 14.7036 11.5064 1285.16 -99.1437 155.876
lowerback 4.49605 4.14907 -1.82585
upperback -6.4534 5.27551 -0.700809
thorax -9.44724 2.63336 -0.389106
lowerneck -16.8959 -2.03501 0.146485
upperneck 20.1652 -4.16002 4.87001
head 9.25151 -1.45166 1.10258
rclavicle -6.04305e-014 0
rhumerus -2.27832 45.813 -72.7966
rradius 105.024
rwrist -103.473
rhand -11.3411 -0.974539
rfingers 7.12502
rthumb 14.6919 -30.434
lclavicle -6.04305e-014 0
lhumerus 32.5358 -46.9236 28.5278
lradius 116.854
lwrist 84.8833
lhand -9.26887 25.6075
lfingers 7.12502
lthumb 16.6876 -305.09
rfemur -28.3738 -26.4659 23.4195
rtibia 52.4411
rfoot -17.729 -15.8251
rtoes 9.0426
lfemur -28.2513 30.2622 -7.25339
ltibia 66.7994
lfoot -13.6074 -8.70838
ltoes -10.4092
2720
root -2.39035 14.7566 11.5993 1288.09 -98.4886 152.953
lowerback 4.44573 4.18202 -1.45451
upperback -6.49298 5.34921 -0.736853
thorax -9.42107 2.6416 -0.637782
lowerneck -16.8534 -1.95559 0.24029
upperneck 20.0541 -4.09932 4.99838
head 9.20553 -1.40571 1.13886
rclavicle -4.09496e-014 1.59028e-015
rhumerus -2.24868 45.5933 -71.3396
rradius 105.355
rwrist -103.376
rhand -11.9833 -1.09463
rfingers 7.12502
rthumb 14.0731 -30.5981
lclavicle -4.09496e-014 1.59028e-015
lhumerus 31.7096 -45.8633 27.5341
lradius 117.437
lwrist 84.136
lhand -8.96459 25.4939
lfingers 7.12502
lthumb 16.9805 -305.228
rfemur -27.9369 -25.9753 23.2569
rtibia 51.3971
rfoot -16.8506 -15.7147
rtoes 8.71439
lfemur -27.2386 29.0179 -6.30621
ltibia 66.0236
lfoot -13.8571 -8.00258
ltoes -10.7391
2721
root -2.3784 14.8094 11.6956 1291.23 -97.7775 149.824
lowerback 4.40226 4.22103 -1.14825
upperback -6.52668 5.42389 -0.783886
thorax -9.39732 2.65432 -0.862483
lowerneck -16.8049 -1.86821 0.332075
upperneck 19.9243 -4.0222 5.11529
head 9.15126 -1.35402 1.17351
rclavicle 5.80451e-014 3.18055e-015
rhumerus -2.23254 45.3662 -69.7905
rradius 105.737
rwrist -103.294
rhand -12.6281 -1.32348
rfingers 7.12502
rthumb 13.4517 -30.8691
lclavicle 5.80451e-014 3.18055e-015
lhumerus 30.7927 -44.7664 26.4957
lradius 117.976
lwrist 83.5707
lhand -8.57134 25.2789
lfingers 7.12502
lthumb 17.359 -305.476
rfemur -27.5214 -25.3944 23.0101
rtibia 50.3623
rfoot -15.9525 -15.6025
rtoes 8.4443
lfemur -26.1237 27.6901 -5.49086
ltibia 65.0657
lfoot -14.0791 -7.01495
ltoes -10.8469
2722
root -2.36597 14.8613 11.7946 1294.6 -97.0072 146.471
lowerback 4.35541 4.26763 -0.93564
upperback -6.54992 5.49945 -0.840609
thorax -9.36792 2.67368 -1.04511
lowerneck -16.7536 -1.77625 0.412366
upperneck 19.7808 -3.93208 5.22451
head 9.09148 -1.29831 1.20891
rclavicle -8.15017e-015 -2.38542e-015
rhumerus -2.23493 45.133 -68.1466
rradius 106.153
rwrist -103.198
rhand -13.2329 -1.58189
rfingers 7.12502
rthumb 12.8687 -31.1652
lclavicle -8.15017e-015 -2.38542e-015
lhumerus 29.8048 -43.669 25.3975
lradius 118.475
lwrist 83.0346
lhand -8.13907 25.0206
lfingers 7.12502
lthumb 17.775 -305.772
rfemur -27.138 -24.7461 22.6623
rtibia 49.3588
rfoot -15.0457 -15.4712
rtoes 8.21083
lfemur -24.9239 26.311 -4.84785
ltibia 63.9184
lfoot -14.2363 -5.83638
ltoes -10.6982
2723
root -2.35342 14.912 11.8956 1298.42 -96.184 142.676
lowerback 4.3051 4.32074 -0.824433
upperback -6.56448 5.57436 -0.900318
thorax -9.33643 2.69971 -1.1743
lowerneck -16.7269 -1.67704 0.447265
upperneck 19.655 -3.8274 5.36087
head 9.0433 -1.23549 1.26272
rclavicle 7.95139e-015 7.95139e-015
rhumerus -2.24709 44.8986 -66.4023
rradius 106.577
rwrist -103.08
rhand -13.6942 -1.86432
rfingers 7.12502
rthumb 12.424 -31.4751
lclavicle 7.95139e-015 7.95139e-015
lhumerus 28.7442 -42.6046 24.232
lradius 118.941
lwrist 82.42
lhand -7.72944 24.7639
lfingers 7.12502
lthumb 18.1692 -306.065
rfemur -26.7988 -24.0464 22.2229
rtibia 48.4042
rfoot -14.1362 -15.3138
rtoes 8.00565
lfemur -23.6517 24.9094 -4.38511
ltibia 62.568
lfoot -14.3145 -4.59979
ltoes -10.2793
